<?xml version="1.0" encoding="utf-8"?>
<!-- Generator: Adobe Illustrator 24.3.0, SVG Export Plug-In . SVG Version: 6.00 Build 0)  -->
<svg version="1.1" id="Layer_1" xmlns="http://www.w3.org/2000/svg" xmlns:xlink="http://www.w3.org/1999/xlink" x="0px" y="0px"
	 viewBox="0 0 106 107" style="enable-background:new 0 0 106 107;" xml:space="preserve">
<style type="text/css">
	.st0{fill:#FFFFFF;}
	.st1{fill:#2108FF;}
	.st2{fill:#F2F2F2;}
	.st3{fill:#210859;}
</style>
<path class="st0" d="M9.9,1h86c5.5,0,10,4.5,10,10v86c0,5.5-4.5,10-10,10h-86c-5.5,0-10-4.5-10-10V11C-0.1,5.4,4.3,1,9.9,1z"/>
<path class="st1" d="M52.9,16.7l-49,49c0,0,43,55.1,98.1,0L52.9,16.7z"/>
<path class="st2" d="M52.9,24.8L93,65c0,0-15.7,20.1-40.2,20.1C71.7,66.2,40.6,37.1,52.9,24.8z"/>
<path class="st3" d="M53.1,24.8L13,65c0,0,15.7,20.1,40.2,20.1C74.2,64,40.1,45.2,53.1,24.8z"/>
</svg>
