<?xml version="1.0" encoding="utf-8"?>
<!-- Generator: Adobe Illustrator 24.3.0, SVG Export Plug-In . SVG Version: 6.00 Build 0)  -->
<svg version="1.1" id="Layer_1" xmlns="http://www.w3.org/2000/svg" xmlns:xlink="http://www.w3.org/1999/xlink" x="0px" y="0px"
	 viewBox="0 0 106 107" style="enable-background:new 0 0 106 107;" xml:space="preserve">
<style type="text/css">
	.st0{fill:#FFFFFF;}
	.st1{fill:none;}
	.st2{font-family:'Arial-BoldMT';}
	.st3{font-size:36px;}
</style>
<path class="st0" d="M10,0.1h86c5.5,0,10,4.5,10,10v86c0,5.5-4.5,10-10,10H10c-5.5,0-10-4.5-10-10v-86C0,4.6,4.5,0.1,10,0.1z"/>
<path class="st1" d="M10,0.1h86c5.5,0,10,4.5,10,10v86c0,5.5-4.5,10-10,10H10c-5.5,0-10-4.5-10-10v-86C0,4.6,4.5,0.1,10,0.1z"/>
<text transform="matrix(1 0 0 1 6.9717 66.0146)" class="st2 st3">EQ18</text>
</svg>
